<svg width="143" height="320" viewBox="0 0 143 320" fill="none" xmlns="http://www.w3.org/2000/svg">
<g clip-path="url(#clip0_550_4431)">
<ellipse cx="0.5" cy="66" rx="44.5" ry="44" fill="#FFEADD"/>
<circle cx="73.1382" cy="199.408" r="12.8813" transform="rotate(90 73.1382 199.408)" fill="#F46F3E"/>
<path d="M54.6148 216.473C59.1164 216.473 63.5739 217.36 67.7327 219.083C71.8916 220.805 75.6705 223.33 78.8536 226.513C82.0366 229.696 84.5616 233.475 86.2842 237.634C88.0069 241.793 88.8936 246.251 88.8936 250.752L54.6149 250.752L54.6148 216.473Z" fill="#35A6B4"/>
<path d="M54.557 250.557C50.0555 250.557 45.598 249.671 41.4391 247.948C37.2802 246.225 33.5014 243.7 30.3183 240.517C27.1352 237.334 24.6103 233.555 22.8876 229.397C21.165 225.238 20.2783 220.78 20.2783 216.279L54.557 216.279L54.557 250.557Z" fill="#FFB38F"/>
<path d="M20.2789 182C24.7805 182 29.2379 182.887 33.3968 184.609C37.5557 186.332 41.3345 188.857 44.5176 192.04C47.7007 195.223 50.2256 199.002 51.9483 203.161C53.671 207.32 54.5576 211.777 54.5576 216.279L20.2789 216.279L20.2789 182Z" fill="#E64C96"/>
<circle opacity="0.35" cx="61" cy="133" r="8" stroke="#FFB38F" stroke-width="2"/>
</g>
<defs>
<clipPath id="clip0_550_4431">
<rect width="143" height="320" fill="white"/>
</clipPath>
</defs>
</svg>
