<svg width="480" height="477" viewBox="0 0 480 477" fill="none" xmlns="http://www.w3.org/2000/svg">
<path d="M480 0.59375H0V476.594H480V0.59375Z" fill="white"/>
<path d="M413 340.594V379.094C413 398.148 397.554 413.594 378.5 413.594C359.446 413.594 344 398.148 344 379.094V340.594H413Z" fill="#E64C96"/>
<path d="M343.912 476.281C343.912 467.369 345.667 458.545 349.078 450.312C352.488 442.079 357.486 434.599 363.787 428.297C370.089 421.996 377.569 416.998 385.802 413.588C394.035 410.177 402.859 408.422 411.771 408.422V476.281H343.912Z" fill="#E84A4A"/>
<path d="M411.771 340.564C411.771 349.475 413.526 358.299 416.936 366.532C420.346 374.765 425.345 382.246 431.646 388.547C437.947 394.848 445.428 399.847 453.661 403.257C461.894 406.667 470.718 408.422 479.629 408.422V340.564H411.771Z" fill="#8E56DC"/>
<path d="M411.771 408.422C411.771 417.333 413.526 426.157 416.936 434.39C420.346 442.623 425.345 450.104 431.646 456.405C437.947 462.706 445.428 467.705 453.661 471.115C461.894 474.525 470.718 476.281 479.629 476.281V408.422L411.771 408.422Z" fill="#2EAB91"/>
<path d="M411.385 272.976C411.385 264.065 409.63 255.241 406.219 247.008C402.809 238.775 397.811 231.294 391.509 224.993C385.208 218.691 377.728 213.693 369.495 210.283C361.262 206.873 352.438 205.117 343.526 205.117V272.976H411.385Z" fill="#F46F3E"/>
<path d="M411.385 272.976C411.385 264.065 413.14 255.241 416.55 247.008C419.96 238.775 424.959 231.294 431.26 224.993C437.561 218.691 445.042 213.693 453.275 210.283C461.508 206.873 470.332 205.117 479.243 205.117V272.976H411.385Z" fill="#35A6B4"/>
<path d="M479.243 340.834C479.243 322.837 472.094 305.577 459.368 292.851C446.642 280.125 429.382 272.976 411.385 272.976C393.388 272.976 376.128 280.125 363.402 292.851C350.676 305.577 343.526 322.837 343.526 340.834H479.243Z" fill="#FFB38F"/>
<path d="M211.08 272.976C211.08 264.065 212.835 255.241 216.245 247.008C219.656 238.775 224.654 231.294 230.955 224.993C237.257 218.691 244.737 213.693 252.97 210.283C261.203 206.873 270.027 205.117 278.938 205.117V272.976H211.08Z" fill="#FFB38F"/>
<path d="M275.938 272.976C275.938 264.065 277.694 255.241 281.104 247.008C284.514 238.775 289.513 231.294 295.814 224.993C302.115 218.691 309.596 213.693 317.829 210.283C326.062 206.873 334.886 205.117 343.797 205.117V272.976H275.938Z" fill="#E64C96"/>
<path d="M208.08 340.834C208.08 322.837 215.229 305.577 227.955 292.851C240.681 280.125 257.941 272.976 275.938 272.976C293.936 272.976 311.196 280.125 323.922 292.851C336.648 305.577 343.797 322.837 343.797 340.834H208.08Z" fill="#8E56DC"/>
<path d="M411.385 136.759C411.385 145.67 413.14 154.494 416.55 162.727C419.96 170.96 424.959 178.441 431.26 184.742C437.561 191.043 445.042 196.042 453.275 199.452C461.508 202.862 470.332 204.617 479.243 204.617V136.759H411.385Z" fill="#8E56DC"/>
<path d="M381.5 211.594C360.789 211.594 344 194.553 344 173.842C344 153.408 360.565 136.594 381 136.594C401.435 136.594 418 153.159 418 173.594V211.594H381.5Z" fill="#E84A4A"/>
<path d="M411.385 136.759C411.385 127.847 409.63 119.023 406.219 110.79C402.809 102.557 397.811 95.0764 391.509 88.7751C385.208 82.4739 377.728 77.4755 369.495 74.0653C361.262 70.6551 352.438 68.8999 343.526 68.8999V136.759L411.385 136.759Z" fill="#FFB38F"/>
<path d="M479.243 68.8999C479.243 77.8111 477.488 86.6352 474.078 94.8681C470.668 103.101 465.669 110.582 459.368 116.883C453.067 123.185 445.586 128.183 437.353 131.593C429.12 135.003 420.296 136.759 411.385 136.759V68.8999H479.243Z" fill="#35A6B4"/>
<path d="M343.412 136.759C343.412 127.848 341.657 119.023 338.247 110.791C334.836 102.558 329.838 95.0767 323.537 88.7755C317.236 82.4742 309.755 77.4758 301.522 74.0656C293.289 70.6553 284.465 68.9001 275.554 68.9001V136.759H343.412Z" fill="#E64C96"/>
<path d="M346.412 204.617C346.412 195.706 344.657 186.882 341.247 178.649C337.836 170.416 332.838 162.936 326.537 156.634C320.236 150.333 312.755 145.335 304.522 141.924C296.289 138.514 287.465 136.759 278.554 136.759V204.617H346.412Z" fill="#2EAB91"/>
<path d="M275.554 68.9001C275.554 77.8114 273.799 86.6358 270.388 94.8687C266.978 103.102 261.98 110.583 255.678 116.884C249.377 123.185 241.897 128.183 233.664 131.594C225.431 135.004 216.607 136.759 207.695 136.759V68.9004L275.554 68.9001Z" fill="#FFB38F"/>
<path d="M210.695 136.759C210.695 145.67 212.451 154.494 215.861 162.727C219.271 170.96 224.269 178.441 230.571 184.742C236.872 191.043 244.352 196.042 252.585 199.452C260.818 202.862 269.642 204.617 278.554 204.617V136.759H210.695Z" fill="#FFB38F"/>
<path d="M283.282 476.01C274.371 476.01 265.547 474.254 257.314 470.844C249.081 467.434 241.6 462.436 235.299 456.134C228.998 449.833 223.999 442.352 220.589 434.119C217.179 425.886 215.424 417.062 215.424 408.151C215.424 399.24 217.179 390.416 220.589 382.183C223.999 373.95 228.998 366.469 235.299 360.168C241.6 353.867 249.081 348.868 257.314 345.458C265.547 342.048 274.371 340.293 283.282 340.293V476.01Z" fill="#35A6B4"/>
<path d="M283 401.594C283 393.583 284.578 385.651 287.643 378.25C290.709 370.849 295.202 364.125 300.866 358.46C306.531 352.796 313.255 348.303 320.656 345.237C328.057 342.172 335.989 340.594 344 340.594V401.594H283Z" fill="#F46F3E"/>
<path d="M175 69.5938C156.775 69.5938 142 84.3684 142 102.594C142 120.819 156.775 135.594 175 135.594C193.225 135.594 208 120.819 208 102.594C208 84.3684 193.225 69.5938 175 69.5938Z" fill="#8E56DC"/>
<path d="M142.722 203.961C142.722 195.049 144.477 186.225 147.887 177.992C151.297 169.759 156.296 162.279 162.597 155.978C168.898 149.676 176.379 144.678 184.612 141.268C192.845 137.858 201.669 136.102 210.58 136.102V203.961H142.722Z" fill="#F46F3E"/>
<path d="M142.717 68.2437C142.717 77.155 140.962 85.979 137.551 94.212C134.141 102.445 129.143 109.926 122.842 116.227C116.54 122.528 109.06 127.527 100.827 130.937C92.5937 134.347 83.7697 136.102 74.8584 136.102V68.2437H142.717Z" fill="#35A6B4"/>
<path d="M142.717 204.961C142.717 196.049 140.962 187.225 137.551 178.992C134.141 170.759 129.143 163.279 122.842 156.978C116.54 150.676 109.06 145.678 100.827 142.268C92.5937 138.858 83.7697 137.102 74.8584 137.102V204.961H142.717Z" fill="#E64C96"/>
<path d="M75.249 68.129C75.249 59.2177 77.0042 50.3935 80.4144 42.1606C83.8246 33.9277 88.8231 26.4471 95.1243 20.1458C101.426 13.8446 108.906 8.84612 117.139 5.43592C125.372 2.02572 134.196 0.270507 143.107 0.270508V68.129H75.249Z" fill="#FFB38F"/>
<path d="M210.966 0.270752C210.966 9.18204 209.211 18.0061 205.8 26.239C202.39 34.472 197.392 41.9526 191.091 48.2538C184.789 54.5551 177.309 59.5536 169.076 62.9637C160.843 66.3739 152.019 68.129 143.107 68.129V0.270508L210.966 0.270752Z" fill="#E64C96"/>
<path d="M343.256 69.4418C343.256 51.4447 350.405 34.1847 363.131 21.4587C375.857 8.73284 393.117 1.5835 411.114 1.5835C429.111 1.5835 446.371 8.73284 459.097 21.4587C471.823 34.1847 478.973 51.4447 478.973 69.4418H343.256Z" fill="#F46F3E"/>
<path d="M310.5 70.5938C291.446 70.5938 276 55.1476 276 36.0938V35.0938C276 16.5923 290.998 1.59375 309.5 1.59375C328.002 1.59375 343 16.5923 343 35.0938V70.5938H310.5Z" fill="#E84A4A"/>
<path d="M208.08 69.1706C208.08 60.2593 209.835 51.4353 213.245 43.2024C216.656 34.9695 221.654 27.4888 227.955 21.1875C234.257 14.8862 241.737 9.88787 249.97 6.47767C258.203 3.06746 267.027 1.31225 275.938 1.31226V69.1706H208.08Z" fill="#2EAB91"/>
<path d="M143.492 204.076C143.492 212.987 145.247 221.811 148.658 230.044C152.068 238.277 157.066 245.758 163.367 252.059C169.669 258.36 177.149 263.358 185.382 266.769C193.615 270.179 202.439 271.934 211.351 271.934V204.076H143.492Z" fill="#8E56DC"/>
<path d="M7.66113 0C7.66113 8.91129 9.41634 17.7354 12.8265 25.9683C16.2368 34.2012 21.2352 41.6819 27.5364 47.9832C33.8376 54.2844 41.3183 59.2828 49.5512 62.693C57.7842 66.1031 66.6082 67.8584 75.5195 67.8584V0H7.66113Z" fill="#E84A4A"/>
<path d="M316 410.594C297.775 410.594 283 425.368 283 443.594C283 461.819 297.775 476.594 316 476.594C334.225 476.594 349 461.819 349 443.594C349 425.368 334.225 410.594 316 410.594Z" fill="#FFB38F"/>
</svg>
