<svg width="30" height="30" viewBox="0 0 30 30" fill="#F25921" xmlns="http://www.w3.org/2000/svg">
<path d="M9.55 3H7.175C4.4375 3 3 4.4375 3 7.1625V9.5375C3 12.2625 4.4375 13.7 7.1625 13.7H9.5375C12.2625 13.7 13.7 12.2625 13.7 9.5375V7.1625C13.7125 4.4375 12.275 3 9.55 3Z" fill="#F25921"/>
<path d="M22.8373 3H20.4623C17.7373 3 16.2998 4.4375 16.2998 7.1625V9.5375C16.2998 12.2625 17.7373 13.7 20.4623 13.7H22.8373C25.5623 13.7 26.9998 12.2625 26.9998 9.5375V7.1625C26.9998 4.4375 25.5623 3 22.8373 3Z" fill="#F25921"/>
<path d="M22.8373 16.2876H20.4623C17.7373 16.2876 16.2998 17.7251 16.2998 20.4501V22.8251C16.2998 25.5501 17.7373 26.9876 20.4623 26.9876H22.8373C25.5623 26.9876 26.9998 25.5501 26.9998 22.8251V20.4501C26.9998 17.7251 25.5623 16.2876 22.8373 16.2876Z" fill="#F25921"/>
<path d="M9.55 16.2876H7.175C4.4375 16.2876 3 17.7251 3 20.4501V22.8251C3 25.5626 4.4375 27.0001 7.1625 27.0001H9.5375C12.2625 27.0001 13.7 25.5626 13.7 22.8376V20.4626C13.7125 17.7251 12.275 16.2876 9.55 16.2876Z" fill="#F25921"/>
</svg>
