<svg width="12" height="12" viewBox="0 0 12 12" fill="none" xmlns="http://www.w3.org/2000/svg">
<path d="M8.37511 1.78V1C8.37511 0.795 8.20511 0.625 8.00011 0.625C7.79511 0.625 7.62511 0.795 7.62511 1V1.75H4.37511V1C4.37511 0.795 4.20511 0.625 4.00011 0.625C3.79511 0.625 3.62511 0.795 3.62511 1V1.78C2.27511 1.905 1.62011 2.71 1.52011 3.905C1.51011 4.05 1.63011 4.17 1.77011 4.17H10.2301C10.3751 4.17 10.4951 4.045 10.4801 3.905C10.3801 2.71 9.72511 1.905 8.37511 1.78Z" fill="#F25921"/>
<path d="M10 4.92004H2C1.725 4.92004 1.5 5.14504 1.5 5.42004V8.50004C1.5 10 2.25 11 4 11H8C9.75 11 10.5 10 10.5 8.50004V5.42004C10.5 5.14504 10.275 4.92004 10 4.92004ZM4.605 9.10504C4.555 9.15004 4.5 9.18504 4.44 9.21004C4.38 9.23504 4.315 9.25004 4.25 9.25004C4.185 9.25004 4.12 9.23504 4.06 9.21004C4 9.18504 3.945 9.15004 3.895 9.10504C3.805 9.01004 3.75 8.88004 3.75 8.75004C3.75 8.62004 3.805 8.49004 3.895 8.39504C3.945 8.35004 4 8.31504 4.06 8.29004C4.18 8.24004 4.32 8.24004 4.44 8.29004C4.5 8.31504 4.555 8.35004 4.605 8.39504C4.695 8.49004 4.75 8.62004 4.75 8.75004C4.75 8.88004 4.695 9.01004 4.605 9.10504ZM4.71 7.19004C4.685 7.25004 4.65 7.30504 4.605 7.35504C4.555 7.40004 4.5 7.43504 4.44 7.46004C4.38 7.48504 4.315 7.50004 4.25 7.50004C4.185 7.50004 4.12 7.48504 4.06 7.46004C4 7.43504 3.945 7.40004 3.895 7.35504C3.85 7.30504 3.815 7.25004 3.79 7.19004C3.765 7.13004 3.75 7.06504 3.75 7.00004C3.75 6.93504 3.765 6.87004 3.79 6.81004C3.815 6.75004 3.85 6.69504 3.895 6.64504C3.945 6.60004 4 6.56504 4.06 6.54004C4.18 6.49004 4.32 6.49004 4.44 6.54004C4.5 6.56504 4.555 6.60004 4.605 6.64504C4.65 6.69504 4.685 6.75004 4.71 6.81004C4.735 6.87004 4.75 6.93504 4.75 7.00004C4.75 7.06504 4.735 7.13004 4.71 7.19004ZM6.355 7.35504C6.305 7.40004 6.25 7.43504 6.19 7.46004C6.13 7.48504 6.065 7.50004 6 7.50004C5.935 7.50004 5.87 7.48504 5.81 7.46004C5.75 7.43504 5.695 7.40004 5.645 7.35504C5.555 7.26004 5.5 7.13004 5.5 7.00004C5.5 6.87004 5.555 6.74004 5.645 6.64504C5.695 6.60004 5.75 6.56504 5.81 6.54004C5.93 6.48504 6.07 6.48504 6.19 6.54004C6.25 6.56504 6.305 6.60004 6.355 6.64504C6.445 6.74004 6.5 6.87004 6.5 7.00004C6.5 7.13004 6.445 7.26004 6.355 7.35504Z" fill="#F25921"/>
</svg>
