<svg width="70" height="49" viewBox="0 0 70 49" fill="none" xmlns="http://www.w3.org/2000/svg">
<path d="M0 14.5781C10.7897 9.95259 21.5747 5.31766 32.358 0.679289C33.3662 0.245622 34.5083 0.245214 35.5168 0.678208C46.3014 5.30864 57.0858 9.93973 67.864 14.585C67.864 21.9659 67.8623 29.3484 67.864 36.7293C69.0869 37.2785 69.9938 38.5312 69.9921 39.9069C70.0074 42.9372 69.9955 45.9693 69.9972 48.9996C67.7206 48.9996 65.444 49.0013 63.1674 48.9978C63.1691 45.9693 63.1571 42.9389 63.1725 39.9086C63.1691 38.5347 64.076 37.2803 65.2988 36.7362C65.3056 29.7192 65.3005 22.7022 65.3022 15.6852C62.4552 16.9119 59.6082 18.1368 56.7612 19.3583C56.5443 19.4813 56.3017 19.4051 56.078 19.36C48.2679 17.5876 40.2631 16.5775 32.2532 16.7473C25.2014 16.8564 18.1974 17.9168 11.3198 19.4536C7.5488 17.8215 3.76757 16.2154 0 14.5781Z" fill="white"/>
</svg>
