<svg width="29" height="29" viewBox="0 0 29 29" fill="none" xmlns="http://www.w3.org/2000/svg">
<g clip-path="url(#clip0_761_22369)">
<path d="M28.3118 4.54091C27.8049 3.96487 27.0465 3.62276 26.2784 3.62616C23.541 3.62559 20.803 3.6222 18.0655 3.62786C17.0069 3.63522 16.0021 4.33304 15.6107 5.31405C15.4431 5.71054 15.3949 6.14497 15.4057 6.57204C15.4068 9.38538 15.4057 12.1993 15.4063 15.0126C15.4057 15.5637 15.4459 16.1149 15.5337 16.6592C15.6249 17.1689 15.7132 17.6883 15.9364 18.1601C16.8098 20.2315 17.6843 22.3028 18.5555 24.3748C18.7883 24.846 19.2386 25.2006 19.7489 25.3229C20.0327 25.3943 20.3283 25.3716 20.6183 25.375C21.4685 25.3722 22.3187 25.3807 23.1688 25.3711C23.6933 25.3552 24.1136 24.812 23.9986 24.3C23.5432 21.9392 23.0805 19.5796 22.624 17.2188C23.8423 17.2176 25.0612 17.2205 26.2796 17.2176C27.0323 17.2193 27.7766 16.892 28.2824 16.3352C28.7151 15.8707 28.9649 15.2511 29 14.619V6.23843C28.97 5.61651 28.7304 5.00479 28.3118 4.54091Z" fill="#FFB38F"/>
<path d="M13.4748 5.55362C13.1508 4.43441 12.0407 3.60972 10.8744 3.62614C8.28822 3.62331 5.70201 3.62614 3.1158 3.62501C2.66268 3.61708 2.19596 3.62558 1.76945 3.79777C0.748789 4.16423 0.0215235 5.18943 0 6.27239V15.3525C0.0390825 16.193 0.147833 17.0369 0.398751 17.8418C1.3033 20.0077 2.22654 22.1663 3.12939 24.3334C3.41316 24.9542 4.07416 25.3761 4.75668 25.3739C5.75922 25.3733 6.76232 25.3801 7.7643 25.3705C8.28879 25.3541 8.70793 24.8114 8.59238 24.2994C8.13529 21.9386 7.67537 19.5778 7.21545 17.2171C8.35959 17.221 9.50316 17.2171 10.6467 17.2193C10.9424 17.2222 11.242 17.2114 11.5298 17.1355C12.3567 16.9367 13.0676 16.3199 13.3881 15.5331C13.532 15.1888 13.5954 14.8155 13.5937 14.4434C13.5943 11.8753 13.5937 9.3072 13.5937 6.73911C13.5983 6.3415 13.5988 5.93595 13.4748 5.55362Z" fill="#FFB38F"/>
</g>
<defs>
<clipPath id="clip0_761_22369">
<rect width="29" height="29" fill="white" transform="matrix(-1 0 0 1 29 0)"/>
</clipPath>
</defs>
</svg>
